<?xml version="1.0" encoding="utf-8"?><svg xmlns="http://www.w3.org/2000/svg" xmlns:xlink="http://www.w3.org/1999/xlink" width="1920" height="1280" preserveAspectRatio="xMidYMid" viewBox="0 0 1920 1280" style="z-index:1;margin-right:-2px;display:block;background-repeat-y:initial;background-repeat-x:initial;background-color:rgb(119, 0, 70);animation-play-state:paused" ><g transform="" style="animation-play-state:paused" ><circle cx="0" cy="0" r="2307.552816296953" fill="#ff00ff" fill-opacity="0.4" transform="matrix(0.9950000047683716,0,0,0.9950000047683716,0,0)" style="transform:matrix(0.995, 0, 0, 0.995, 0, 0);animation-play-state:paused" ></circle>
<circle cx="0" cy="0" r="2097.7752875426845" fill="#e157ff" fill-opacity="0.4" transform="matrix(0.9957127571105957,0,0,0.9957127571105957,0,0)" style="transform:matrix(0.995713, 0, 0, 0.995713, 0, 0);animation-play-state:paused" ></circle>
<circle cx="0" cy="0" r="1887.9977587884164" fill="#bb7bff" fill-opacity="0.4" transform="matrix(0.9978168606758118,0,0,0.9978168606758118,0,0)" style="transform:matrix(0.997817, 0, 0, 0.997817, 0, 0);animation-play-state:paused" ></circle>
<circle cx="0" cy="0" r="1678.2202300341478" fill="#8b96ff" fill-opacity="0.4" transform="matrix(1.0007541179656982,0,0,1.0007541179656982,0,0)" style="transform:matrix(1.00075, 0, 0, 1.00075, 0, 0);animation-play-state:paused" ></circle>
<circle cx="0" cy="0" r="1468.4427012798792" fill="#48acff" fill-opacity="0.4" transform="matrix(1.0033924579620361,0,0,1.0033924579620361,0,0)" style="transform:matrix(1.00339, 0, 0, 1.00339, 0, 0);animation-play-state:paused" ></circle>
<circle cx="0" cy="0" r="1258.6651725256106" fill="#00beff" fill-opacity="0.4" transform="matrix(1.0048242807388306,0,0,1.0048242807388306,0,0)" style="transform:matrix(1.00482, 0, 0, 1.00482, 0, 0);animation-play-state:paused" ></circle>
<circle cx="0" cy="0" r="1048.8876437713423" fill="#00cdff" fill-opacity="0.4" transform="matrix(1.0048242807388306,0,0,1.0048242807388306,0,0)" style="transform:matrix(1.00482, 0, 0, 1.00482, 0, 0);animation-play-state:paused" ></circle>
<circle cx="0" cy="0" r="839.1101150170739" fill="#00daff" fill-opacity="0.4" transform="matrix(1.0033924579620361,0,0,1.0033924579620361,0,0)" style="transform:matrix(1.00339, 0, 0, 1.00339, 0, 0);animation-play-state:paused" ></circle>
<circle cx="0" cy="0" r="629.3325862628053" fill="#00e5ff" fill-opacity="0.4" transform="matrix(1.0007541179656982,0,0,1.0007541179656982,0,0)" style="transform:matrix(1.00075, 0, 0, 1.00075, 0, 0);animation-play-state:paused" ></circle>
<circle cx="0" cy="0" r="419.55505750853695" fill="#00efff" fill-opacity="0.4" transform="matrix(0.9978168606758118,0,0,0.9978168606758118,0,0)" style="transform:matrix(0.997817, 0, 0, 0.997817, 0, 0);animation-play-state:paused" ></circle>
<circle cx="0" cy="0" r="209.77752875426847" fill="#00f8ff" fill-opacity="0.4" transform="matrix(0.9957127571105957,0,0,0.9957127571105957,0,0)" style="transform:matrix(0.995713, 0, 0, 0.995713, 0, 0);animation-play-state:paused" ></circle>
<circle cx="0" cy="0" r="0" fill="#00ffff" fill-opacity="0.4" transform="matrix(0.9950000047683716,0,0,0.9950000047683716,0,0)" style="transform:matrix(0.995, 0, 0, 0.995, 0, 0);animation-play-state:paused" ></circle></g></svg>