<svg id="_YOUR_TEXT_HERE_" data-name="[YOUR TEXT HERE]" xmlns="http://www.w3.org/2000/svg" xmlns:xlink="http://www.w3.org/1999/xlink" viewBox="0 0 167 161.48"><defs><radialGradient id="radial-gradient" cx="183.94" cy="-147.54" r="0" gradientUnits="userSpaceOnUse"><stop offset="0" stop-color="#f04d59"/><stop offset="1" stop-color="#d0123e"/></radialGradient><radialGradient id="radial-gradient-2" cx="87.95" cy="81.24" r="77.15" xlink:href="#radial-gradient"/></defs><title>pdp</title><path d="M183.94-147.54" transform="translate(-6.59 -11.29)" style="stroke:#001d3c;stroke-miterlimit:10;stroke-width:5px;fill:url(#radial-gradient)"/><ellipse cx="85.95" cy="80.74" rx="78.06" ry="78.22" style="stroke:#001d3c;stroke-miterlimit:10;stroke-width:5px;fill:url(#radial-gradient-2)"/><path d="M32.88,147.38a5.79,5.79,0,0,1-5.74-4L12.7,93.25c-1.15-4-2.33-7.75-3.84-12.23a5.32,5.32,0,0,1,.4-4.26,6.69,6.69,0,0,1,4.19-3.23l1-.27A7.13,7.13,0,0,1,16.27,73a5.84,5.84,0,0,1,5.63,3.66l.3.82c3.41-5.78,9.31-9.91,17.3-12a30.54,30.54,0,0,1,7.87-1.06c12.45,0,22.85,8.2,26.51,20.89,2.4,8.33,1.73,16.17-1.93,22.65s-10.21,11.36-18.32,13.53a31.42,31.42,0,0,1-8.05,1.09A24,24,0,0,1,36,120.69l5.37,18.63a5.36,5.36,0,0,1-.53,4.16,6.74,6.74,0,0,1-4.13,3.12l-2,.54A7.07,7.07,0,0,1,32.88,147.38Z" transform="translate(-6.59 -11.29)" style="fill:#fff"/><path d="M47.37,66.39c11.26,0,21,7.13,24.59,19.44,5.13,17.81-5.17,30-18.85,33.7a29.43,29.43,0,0,1-7.53,1,19.84,19.84,0,0,1-12.59-4l-.24.07,6.71,23.26c.57,2-.9,4.16-3.26,4.8l-2,.54a5.42,5.42,0,0,1-1.31.17,3.81,3.81,0,0,1-3.81-2.56L14.62,92.69C13.27,88,12,84,10.75,80.38c-.68-2,.79-4.27,3.22-4.92l1-.27A5.42,5.42,0,0,1,16.27,75,3.86,3.86,0,0,1,20,77.37l1.87,5.11.24-.06c2.46-7.16,8.41-12.5,17.89-15a28.67,28.67,0,0,1,7.35-1m0-4A32.39,32.39,0,0,0,39,63.52c-7.19,1.92-12.8,5.38-16.58,10.15A8.11,8.11,0,0,0,16.27,71a8.8,8.8,0,0,0-2.34.31l-1,.27a8.68,8.68,0,0,0-5.45,4.22A7.33,7.33,0,0,0,7,81.66c1,3,2.36,7.08,3.82,12.14l14.44,50.13a7.77,7.77,0,0,0,7.66,5.45,9.36,9.36,0,0,0,2.35-.31l2-.54a8.7,8.7,0,0,0,5.35-4.06,7.33,7.33,0,0,0,.71-5.7l-4.31-15a28,28,0,0,0,6.59.76,33.08,33.08,0,0,0,8.56-1.16c8.64-2.31,15.58-7.45,19.55-14.47s4.66-15.33,2.11-24.19C71.89,71.16,60.73,62.39,47.37,62.39Z" transform="translate(-6.59 -11.29)" style="fill:#001d3c"/><path d="M93,122.22c-12.44,0-22.84-8.19-26.51-20.86C64.1,93,64.76,85.19,68.42,78.7s10.19-11.36,18.3-13.54a31.12,31.12,0,0,1,8.08-1.1,23.91,23.91,0,0,1,9.54,1.86L99,47.29a5.36,5.36,0,0,1,.53-4.16A6.76,6.76,0,0,1,103.6,40l2-.54a7.07,7.07,0,0,1,1.83-.24,5.77,5.77,0,0,1,5.73,4l14.51,50.11c0,.06,2.64,8.65,3.85,12.22a5.35,5.35,0,0,1-.39,4.26,6.7,6.7,0,0,1-4.2,3.24l-1,.27a7.13,7.13,0,0,1-1.83.24,5.82,5.82,0,0,1-5.62-3.65l-.31-.83c-3.4,5.79-9.3,9.92-17.29,12.07A30.69,30.69,0,0,1,93,122.22Z" transform="translate(-6.59 -11.29)" style="fill:#fff"/><path d="M107.44,41.23a3.81,3.81,0,0,1,3.82,2.55l14.5,50.12s2.65,8.67,3.88,12.3c.69,2-.78,4.28-3.21,4.93l-1,.26a5,5,0,0,1-1.31.18,3.86,3.86,0,0,1-3.75-2.34l-1.88-5.12-.23.07c-2.45,7.15-8.41,12.5-17.88,15a28.82,28.82,0,0,1-7.37,1c-11.25,0-21-7.12-24.59-19.42-5.15-17.79,5.14-30,18.81-33.71a29.24,29.24,0,0,1,7.56-1,19.83,19.83,0,0,1,12.56,4l.24-.06-6.73-23.26c-.58-2,.89-4.16,3.25-4.8l2-.54a5.54,5.54,0,0,1,1.31-.17m0-4a8.9,8.9,0,0,0-2.34.31l-2,.54a8.8,8.8,0,0,0-5.36,4.07,7.37,7.37,0,0,0-.7,5.7l4.33,15a27.81,27.81,0,0,0-6.56-.76,33.4,33.4,0,0,0-8.6,1.17c-8.63,2.32-15.56,7.46-19.52,14.49S62,93.06,64.59,101.91c3.92,13.55,15.08,22.31,28.43,22.31a32.54,32.54,0,0,0,8.41-1.13c7.19-1.93,12.8-5.39,16.58-10.17a8.07,8.07,0,0,0,6.12,2.65,9.36,9.36,0,0,0,2.35-.31l1-.27a8.69,8.69,0,0,0,5.44-4.22,7.32,7.32,0,0,0,.52-5.85c-1.16-3.44-3.67-11.63-3.83-12.17L115.1,42.67a7.76,7.76,0,0,0-7.66-5.44Z" transform="translate(-6.59 -11.29)" style="fill:#001d3c"/><path d="M129.17,147.38a5.79,5.79,0,0,1-5.74-4l-12.68-44c-.59-2-1.17-4-1.77-6.08-1.43-4.82-2.64-8.71-3.83-12.24a5.32,5.32,0,0,1,.4-4.26,6.69,6.69,0,0,1,4.19-3.23l1-.27a7.13,7.13,0,0,1,1.83-.24,5.84,5.84,0,0,1,5.63,3.66l.3.82c3.41-5.78,9.31-9.91,17.3-12a30.54,30.54,0,0,1,7.87-1.06c12.45,0,22.85,8.2,26.51,20.89,2.4,8.33,1.73,16.17-1.93,22.65S158,119.29,149.92,121.46a31.37,31.37,0,0,1-8,1.09,24,24,0,0,1-9.57-1.86l5.37,18.63a5.36,5.36,0,0,1-.53,4.16A6.74,6.74,0,0,1,133,146.6l-2,.54A7.07,7.07,0,0,1,129.17,147.38Z" transform="translate(-6.59 -11.29)" style="fill:#fff"/><path d="M143.66,66.39c11.26,0,21,7.13,24.59,19.44,5.13,17.81-5.17,30-18.85,33.7a29.43,29.43,0,0,1-7.53,1,19.84,19.84,0,0,1-12.59-4l-.24.07,6.71,23.26c.57,2-.89,4.16-3.26,4.8l-2,.54a5.42,5.42,0,0,1-1.31.17,3.81,3.81,0,0,1-3.81-2.56L119,120.65q-2.25-7.8-4.49-15.59-.92-3.14-1.81-6.27L110.9,92.7c-1.22-4.12-2.48-8.23-3.86-12.32-.68-2,.79-4.27,3.22-4.92l1-.27a5.42,5.42,0,0,1,1.31-.17,3.86,3.86,0,0,1,3.75,2.35l1.87,5.11.24-.06c2.46-7.16,8.41-12.5,17.89-15a28.67,28.67,0,0,1,7.35-1m0-4a32.39,32.39,0,0,0-8.39,1.13c-7.19,1.92-12.8,5.38-16.58,10.15A8.09,8.09,0,0,0,112.56,71a8.8,8.8,0,0,0-2.34.31l-1,.27a8.68,8.68,0,0,0-5.45,4.22,7.33,7.33,0,0,0-.53,5.84c1.19,3.51,2.4,7.37,3.81,12.17.6,2,1.18,4,1.76,6.07l.84,2.91,1,3.36,2.25,7.79,2.24,7.79,5.48,19,.91,3.17a7.77,7.77,0,0,0,7.66,5.45,9.36,9.36,0,0,0,2.35-.31l2-.54a8.7,8.7,0,0,0,5.35-4.06,7.33,7.33,0,0,0,.71-5.7l-4.31-15a28,28,0,0,0,6.59.76,33.08,33.08,0,0,0,8.56-1.16c8.64-2.31,15.58-7.45,19.55-14.47s4.66-15.33,2.11-24.19C168.18,71.16,157,62.39,143.66,62.39Z" transform="translate(-6.59 -11.29)" style="fill:#001d3c"/></svg>